<svg width="57" height="57" viewBox="0 0 57 57" fill="none" xmlns="http://www.w3.org/2000/svg">
<circle opacity="0.1" cx="28.6559" cy="28.8815" r="27.9801" fill="#FD8B8B"/>
<path d="M36.3504 21.614H21.4859L20.2158 19.3375C20.0733 19.082 19.8036 18.9236 19.511 18.9236H17.8967C17.451 18.9236 17.0896 19.285 17.0896 19.7307C17.0896 20.1765 17.451 20.5379 17.8967 20.5379H19.037L20.2904 22.7845L23.1811 29.1804L23.184 29.1869L23.4387 29.7502L20.5364 32.8459C20.3277 33.0685 20.2624 33.3898 20.3676 33.6762C20.4728 33.9626 20.7305 34.1652 21.0336 34.1999L23.6789 34.5022C26.9878 34.8803 30.3289 34.8803 33.6378 34.5022L36.2831 34.1999C36.726 34.1492 37.044 33.7492 36.9934 33.3063C36.9428 32.8634 36.5427 32.5454 36.0998 32.5961L33.4545 32.8984C30.2674 33.2626 27.0493 33.2626 23.8622 32.8984L22.8124 32.7784L24.9425 30.5063C24.9632 30.4843 24.9823 30.4615 25 30.4379L25.8101 30.5433C26.9454 30.691 28.0929 30.72 29.2342 30.6297C31.8961 30.4192 34.3631 29.1526 36.0854 27.1122L36.7075 26.3752C36.7284 26.3505 36.7478 26.3245 36.7656 26.2974L37.925 24.5305C38.7468 23.2781 37.8484 21.614 36.3504 21.614Z" fill="#FD8B8B"/>
<path d="M22.7395 35.8731C21.8479 35.8731 21.1252 36.5958 21.1252 37.4874C21.1252 38.3789 21.8479 39.1016 22.7395 39.1016C23.631 39.1016 24.3537 38.3789 24.3537 37.4874C24.3537 36.5958 23.631 35.8731 22.7395 35.8731Z" fill="#FD8B8B"/>
<path d="M32.963 37.4874C32.963 36.5958 33.6857 35.8731 34.5772 35.8731C35.4687 35.8731 36.1915 36.5958 36.1915 37.4874C36.1915 38.3789 35.4687 39.1016 34.5772 39.1016C33.6857 39.1016 32.963 38.3789 32.963 37.4874Z" fill="#FD8B8B"/>
</svg>
