<svg width="33" height="56" viewBox="0 0 33 56" fill="none" xmlns="http://www.w3.org/2000/svg">
<path d="M55.3148 27.8816C55.3148 43.0375 43.0286 55.3237 27.8728 55.3237C12.717 55.3237 0.430725 43.0375 0.430725 27.8816C0.430725 12.7258 12.717 0.439575 27.8728 0.439575C43.0286 0.439575 55.3148 12.7258 55.3148 27.8816ZM8.51955 27.8816C8.51955 38.5701 17.1843 47.2349 27.8728 47.2349C38.5613 47.2349 47.226 38.5701 47.226 27.8816C47.226 17.1931 38.5613 8.5284 27.8728 8.5284C17.1843 8.5284 8.51955 17.1931 8.51955 27.8816Z" fill="#EEEEEF"/>
<mask id="path-2-inside-1_1_187" fill="white">
<path d="M51.304 27.8816C53.5191 27.8816 55.3449 29.6867 55.0223 31.8782C54.6238 34.5852 53.8215 37.2249 52.636 39.7075C50.8724 43.4004 48.3052 46.6521 45.1223 49.2245C41.9395 51.7969 38.2216 53.6249 34.2409 54.5746C31.5648 55.213 28.8156 55.4436 26.0852 55.2654C23.8748 55.1211 22.4929 52.9574 22.9575 50.7915C23.4222 48.6257 25.5642 47.2912 27.7793 47.3018C29.3236 47.3093 30.868 47.1325 32.3794 46.7719C35.1965 46.0999 37.8276 44.8062 40.0801 42.9858C42.3326 41.1653 44.1493 38.8641 45.3974 36.2507C46.067 34.8485 46.5638 33.3755 46.8805 31.864C47.3348 29.696 49.0889 27.8816 51.304 27.8816Z"/>
</mask>
<path d="M51.304 27.8816C53.5191 27.8816 55.3449 29.6867 55.0223 31.8782C54.6238 34.5852 53.8215 37.2249 52.636 39.7075C50.8724 43.4004 48.3052 46.6521 45.1223 49.2245C41.9395 51.7969 38.2216 53.6249 34.2409 54.5746C31.5648 55.213 28.8156 55.4436 26.0852 55.2654C23.8748 55.1211 22.4929 52.9574 22.9575 50.7915C23.4222 48.6257 25.5642 47.2912 27.7793 47.3018C29.3236 47.3093 30.868 47.1325 32.3794 46.7719C35.1965 46.0999 37.8276 44.8062 40.0801 42.9858C42.3326 41.1653 44.1493 38.8641 45.3974 36.2507C46.067 34.8485 46.5638 33.3755 46.8805 31.864C47.3348 29.696 49.0889 27.8816 51.304 27.8816Z" stroke="#8DDD2B" stroke-width="34.4371" stroke-linecap="round" mask="url(#path-2-inside-1_1_187)"/>
</svg>
