<svg width="32" height="56" viewBox="0 0 3256" fill="none" xmlns="http://www.w3.org/2000/svg">
<path d="M55.391 28.2448C55.391 43.4006 43.1048 55.6868 27.949 55.6868C12.7931 55.6868 0.506897 43.4006 0.506897 28.2448C0.506897 13.089 12.7931 0.802734 27.949 0.802734C43.1048 0.802734 55.391 13.089 55.391 28.2448ZM8.59572 28.2448C8.59572 38.9333 17.2605 47.598 27.949 47.598C38.6374 47.598 47.3022 38.9333 47.3022 28.2448C47.3022 17.5563 38.6374 8.89156 27.949 8.89156C17.2605 8.89156 8.59572 17.5563 8.59572 28.2448Z" fill="#EEEEEF"/>
<mask id="path-2-inside-1_1_176" fill="white">
<path d="M51.3802 28.2448C53.5953 28.2448 55.4211 30.05 55.0985 32.2415C54.3821 37.1075 52.3664 41.7181 49.2301 45.5704C45.2451 50.4652 39.6946 53.8367 33.5139 55.1167C27.3331 56.3966 20.9001 55.5068 15.2989 52.5972C9.69763 49.6876 5.27063 44.9361 2.76388 39.1433C0.257135 33.3506 -0.176094 26.8708 1.5372 20.7959C3.2505 14.721 7.00557 9.42244 12.1696 5.79308C17.3337 2.16372 23.591 0.425475 29.8871 0.871263C34.8423 1.22211 39.583 2.90887 43.6206 5.71774C45.439 6.98274 45.5051 9.5494 43.9887 11.1641C42.4724 12.7789 39.949 12.8155 38.0576 11.6625C35.426 10.0584 32.433 9.09322 29.3206 8.87284C24.8649 8.55737 20.4366 9.78751 16.7821 12.356C13.1276 14.9244 10.4701 18.6742 9.25765 22.9733C8.04517 27.2724 8.35176 31.8581 10.1258 35.9576C11.8997 40.057 15.0327 43.4197 18.9966 45.4787C22.9606 47.5378 27.5131 48.1675 31.8872 47.2617C36.2612 46.3559 40.1893 43.97 43.0094 40.5059C44.9794 38.0862 46.3247 35.2437 46.9567 32.2273C47.411 30.0592 49.1651 28.2448 51.3802 28.2448Z"/>
</mask>
<path d="M51.3802 28.2448C53.5953 28.2448 55.4211 30.05 55.0985 32.2415C54.3821 37.1075 52.3664 41.7181 49.2301 45.5704C45.2451 50.4652 39.6946 53.8367 33.5139 55.1167C27.3331 56.3966 20.9001 55.5068 15.2989 52.5972C9.69763 49.6876 5.27063 44.9361 2.76388 39.1433C0.257135 33.3506 -0.176094 26.8708 1.5372 20.7959C3.2505 14.721 7.00557 9.42244 12.1696 5.79308C17.3337 2.16372 23.591 0.425475 29.8871 0.871263C34.8423 1.22211 39.583 2.90887 43.6206 5.71774C45.439 6.98274 45.5051 9.5494 43.9887 11.1641C42.4724 12.7789 39.949 12.8155 38.0576 11.6625C35.426 10.0584 32.433 9.09322 29.3206 8.87284C24.8649 8.55737 20.4366 9.78751 16.7821 12.356C13.1276 14.9244 10.4701 18.6742 9.25765 22.9733C8.04517 27.2724 8.35176 31.8581 10.1258 35.9576C11.8997 40.057 15.0327 43.4197 18.9966 45.4787C22.9606 47.5378 27.5131 48.1675 31.8872 47.2617C36.2612 46.3559 40.1893 43.97 43.0094 40.5059C44.9794 38.0862 46.3247 35.2437 46.9567 32.2273C47.411 30.0592 49.1651 28.2448 51.3802 28.2448Z" stroke="#8DDD2B" stroke-width="34.4371" stroke-linecap="round" mask="url(#path-2-inside-1_1_176)"/>
</svg>
